:SAMPLES-PER-SECOND 24
:FULLY-SPECIFIED
:DEGREES
228
root  -5.18193 35.9593 -8.42045 18.6091 -17.8622 -35.3888
RightUpLeg  -44.2611 -3.30608 10.7738
RightLeg  43.9643 20.7154 19.8372
RightFoot  6.93367 -4.33292 26.8169
RightToes  -1.74623e-010 0 -2.59999e-017
Spine  16.0745 -4.57179 -8.60675
Spine1  13.1946 -12.5243 23.0334
HEad  0.158354 10.5895 0.901846
LeftShoulder1  1.85842 -4.22105 -17.4196
LeftArm  22.5621 -23.3799 -55.2615
LeftForeArm  30.1674 -68.8727 -27.1053
LeftHand  -0.711915 1.91321 23.5945
RightShoulder  3.18812 5.55202 29.2786
RightArm  1.98299 -39.4185 5.66466
RightForeArm  -6.25851 45.5299 11.8216
RightHand  -1.67852 3.01011 -23.1441
LeftUpLeg  -13.3159 -4.14022 17.5176
LeftLeg  49.7152 -2.66102 -2.88702
LeftFoot  -29.6705 3.7231 21.7093
LeftToes  -6.27559e-011 -2.10356e-011 8.24929e-012
229
root  -6.27669 36.5935 -8.04392 9.9281 -1.59482 -25.7158
RightUpLeg  -42.3746 -5.91528 10.4635
RightLeg  39.2402 19.1035 15.7723
RightFoot  3.50216 -3.17337 24.2717
RightToes  -1.74623e-010 0 -2.59999e-017
Spine  16.7558 -5.30549 -8.91214
Spine1  13.7175 -13.2761 21.8191
HEad  -2.78514 17.5488 -2.16362
LeftShoulder1  1.81246 -4.28357 -16.5667
LeftArm  19.6829 -26.3382 -53.4217
LeftForeArm  31.9806 -70.048 -28.9961
LeftHand  -0.758368 1.89933 25.0146
RightShoulder  2.98138 5.3013 27.9033
RightArm  -2.83042 -39.5462 5.22993
RightForeArm  -3.52962 51.6549 14.5438
RightHand  -1.64259 3.41421 -21.6719
LeftUpLeg  -11.5502 -4.58183 15.4187
LeftLeg  48.3801 -8.88091 -10.1008
LeftFoot  -26.0419 3.20517 23.328
LeftToes  -6.27559e-011 -2.10356e-011 8.24929e-012
230
root  -7.26946 37.1945 -7.23783 3.81824 14.4224 -20.1965
RightUpLeg  -40.3721 -7.53281 8.30792
RightLeg  30.4005 14.9582 9.08586
RightFoot  -1.23548 -1.76796 19.7175
RightToes  -1.74623e-010 0 -2.59999e-017
Spine  17.6533 -5.58746 -7.21153
Spine1  13.861 -13.5027 21.4921
HEad  -4.36985 23.4605 -7.56084
LeftShoulder1  1.85746 -4.32879 -17.0455
LeftArm  15.4542 -26.5609 -50.3921
LeftForeArm  39.0759 -73.426 -36.2979
LeftHand  -0.64105 2.63991 26.8012
RightShoulder  2.97203 5.22627 28.0918
RightArm  -7.28607 -37.4711 4.949
RightForeArm  -0.123783 57.0484 17.6511
RightHand  -1.62093 3.1383 -22.0573
LeftUpLeg  -8.44629 -1.36295 14.5979
LeftLeg  46.8605 -10.8829 -11.7845
LeftFoot  -22.7998 2.20449 20.365
LeftToes  -6.27559e-011 -2.10356e-011 8.24929e-012
231
root  -8.18964 37.5763 -5.99499 -0.448914 30.5137 -16.016
RightUpLeg  -37.8129 -6.6746 1.82732
RightLeg  23.1886 9.92431 4.40423
RightFoot  -5.91544 -0.549942 10.3827
RightToes  -1.74623e-010 0 -2.59999e-017
Spine  17.3769 -5.75724 -6.76659
Spine1  12.7446 -13.7118 22.3459
HEad  -3.21887 29.3905 -12.805
LeftShoulder1  2.0222 -4.50542 -18.7067
LeftArm  11.0398 -24.7414 -46.1844
LeftForeArm  49.1854 -76.4241 -46.9068
LeftHand  -0.54617 3.12824 27.7391
RightShoulder  2.9352 5.18187 27.834
RightArm  -10.517 -33.6736 5.87896
RightForeArm  3.45677 60.4818 20.0967
RightHand  -1.47319 2.18635 -22.528
LeftUpLeg  -6.56396 7.77982 14.7925
LeftLeg  47.1471 -7.7257 -8.38226
LeftFoot  -18.6332 0.823916 11.0088
LeftToes  -6.27559e-011 -2.10356e-011 8.24929e-012
232
root  -9.01978 37.4846 -4.41664 -4.24384 46.9464 -12.5045
RightUpLeg  -33.6452 -5.07501 -6.99468
RightLeg  20.8078 5.23564 1.97181
RightFoot  -12.9585 -0.0607547 2.42717
RightToes  -1.74623e-010 0 -2.59999e-017
Spine  17.0502 -5.71212 -7.12699
Spine1  11.4159 -13.4897 22.3484
HEad  -2.99406 33.7946 -16.6125
LeftShoulder1  2.09252 -4.56544 -19.4431
LeftArm  8.16485 -22.9468 -42.7912
LeftForeArm  61.2159 -78.4038 -59.4353
LeftHand  -0.544378 3.1772 28.261
RightShoulder  2.90993 5.11645 27.797
RightArm  -12.2926 -30.2092 7.23347
RightForeArm  7.16318 63.9057 23.273
RightHand  -1.36898 1.39224 -23.3355
LeftUpLeg  -5.19534 21.8139 17.6051
LeftLeg  49.466 -1.6958 -1.58381
LeftFoot  -15.1129 0.125832 0.998291
LeftToes  -6.27559e-011 -2.10356e-011 8.24929e-012
233
root  -9.64917 36.8597 -2.51032 -9.33038 62.3322 -10.8556
RightUpLeg  -27.5271 -3.2948 -14.0782
RightLeg  21.4476 4.72943 1.81828
RightFoot  -17.4492 -0.0316051 1.42846
RightToes  -1.74623e-010 0 -2.59999e-017
Spine  16.4536 -5.10577 -6.85078
Spine1  11.4908 -12.6043 21.0355
HEad  -3.99892 37.2403 -20.7939
LeftShoulder1  2.07294 -4.47138 -19.5058
LeftArm  5.46949 -22.3922 -41.0431
LeftForeArm  77.5471 -79.6769 -76.5096
LeftHand  -0.4483 3.59779 28.7663
RightShoulder  2.9492 5.14359 28.1568
RightArm  -13.7819 -27.9191 8.26235
RightForeArm  13.409 68.4649 29.1971
RightHand  -1.42749 1.26683 -24.7314
LeftUpLeg  -0.794599 33.5941 23.8759
LeftLeg  48.7834 6.31763 8.04718
LeftFoot  -14.9875 -0.107955 -6.03223
LeftToes  -6.27559e-011 -2.10356e-011 8.24929e-012
